<svg xmlns="http://www.w3.org/2000/svg" width="356.988" height="110.288" viewBox="0 0 356.988 110.288">
  <g id="Group_12" data-name="Group 12" transform="translate(-69.771 -600)">
    <g id="Group_1" data-name="Group 1" transform="translate(-754.774 69.042)">
      <rect id="Rectangle_4" data-name="Rectangle 4" width="31.194" height="31.194" transform="translate(868.659 553.016) rotate(45)" fill="#fff" opacity="0.6"/>
      <path id="Rectangle_11" data-name="Rectangle 11" d="M0,0H31.194V31.194H4a4,4,0,0,1-4-4Z" transform="translate(846.602 575.073) rotate(45)" fill="#fff" opacity="0.8"/>
      <rect id="Rectangle_7" data-name="Rectangle 7" width="31.194" height="31.194" transform="translate(912.774 553.016) rotate(45)" fill="#fff" opacity="0.6"/>
      <rect id="Rectangle_9" data-name="Rectangle 9" width="31.194" height="31.194" transform="translate(890.716 575.073) rotate(45)" fill="#fff" opacity="0.8"/>
      <path id="Rectangle_13" data-name="Rectangle 13" d="M0,0H31.194V27.194a4,4,0,0,1-4,4H0Z" transform="translate(912.774 597.131) rotate(45)" fill="#fff"/>
      <path id="Rectangle_14" data-name="Rectangle 14" d="M0,0H31.194V27.194a4,4,0,0,1-4,4H0Z" transform="translate(868.659 597.131) rotate(45)" fill="#fff"/>
      <path id="Rectangle_15" data-name="Rectangle 15" d="M0,0H31.194V27.194a4,4,0,0,1-4,4H0Z" transform="translate(956.889 597.131) rotate(45)" fill="#fff"/>
      <rect id="Rectangle_10" data-name="Rectangle 10" width="31.194" height="31.194" transform="translate(934.831 575.073) rotate(45)" fill="#fff" opacity="0.8"/>
      <path id="Rectangle_12" data-name="Rectangle 12" d="M0,0H27.194a4,4,0,0,1,4,4V31.194H0Z" transform="translate(978.946 575.073) rotate(45)" fill="#fff" opacity="0.8"/>
      <rect id="Rectangle_8" data-name="Rectangle 8" width="31.194" height="31.194" transform="translate(956.889 553.016) rotate(45)" fill="#fff" opacity="0.6"/>
      <path id="Rectangle_5" data-name="Rectangle 5" d="M3,0H31.194V31.194H0V3A3,3,0,0,1,3,0Z" transform="translate(890.716 530.958) rotate(45)" fill="#fff" opacity="0.4"/>
      <path id="Rectangle_6" data-name="Rectangle 6" d="M3,0H31.194V31.194H0V3A3,3,0,0,1,3,0Z" transform="translate(934.831 530.958) rotate(45)" fill="#fff" opacity="0.4"/>
    </g>
    <path id="Path_296" data-name="Path 296" d="M-49.168-49.7v26.98L-68.338-49.7h-8.52V0H-65.5V-26.98L-46.327,0h8.52V-49.7Zm41.89,14.2-6.674,21.726L-21.833-35.5H-33.548L-19.419-1.633C-20.98,2.7-23.324,4.26-28.294,4.26V14.2c9.94.5,16.259-3.976,20.235-15.265L4.082-35.5ZM42.067,0,28.79-17.75,41.712-35.5H29.287L18.637-19.951V-49.7H7.987V0h10.65V-15.691L30,0ZM53.356-13.49H78.562a20.639,20.639,0,0,0,.426-4.26c0-10.721-7.668-18.744-18.034-18.744-11.218,0-18.886,8.165-18.886,18.744S49.593.994,61.735.994c6.745,0,12-2.485,15.478-7.313l-8.52-4.9a9.27,9.27,0,0,1-6.816,2.7C57.972-8.52,54.706-9.8,53.356-13.49Zm-.213-7.952c.994-3.621,3.692-5.609,7.739-5.609a7.309,7.309,0,0,1,7.526,5.609Z" transform="translate(347.771 688)" fill="#c2c7d0"/>
  </g>
</svg>
